<?xml version="1.0" encoding="UTF-8"?><svg id="uuid-19a19241-82d1-4e5d-9bf1-92b4fa3eb510" xmlns="http://www.w3.org/2000/svg" viewBox="0 0 104.79 28.06"><g id="uuid-319b9633-e3c5-4085-b723-2f4937a76ebc"><g id="uuid-d15ebef7-a088-4925-8214-d231e5a58756" opacity=".99"><path d="M7.31,28.06c-12.81-.51-6.15-17.44.17-22.49C15.54-2.33,27.98.49,20.36,12.84c-2.67-.32-.75-4.06-.24-5.66,2.42-5.1-3.68-5.9-6.96-3.53C6.82,7.82.82,18.09,4.02,25.49c4.98,4.61,12.08-2.12,13.8-7.51,2.66,5.39-5.93,10.07-10.51,10.08Z" fill="#000" stroke-width="0"/><path d="M23.19,27.29c-9.72-2.12,8.4-23.03,13.99-14.42.67.95-.67,1.93-1.08.69-.91-2.35-2.92-1.84-4.75-.53-4.93,2.1-14.58,20.26-3.1,9.65,2.66-1.84,3.82-7.16,7.37-6.19.55.52.07.66-.38,1.66-5.22,8.41-3.15,10.13,3.46,2.57,1.87-2.46,1.49-.15.1.98-3.56,5.63-11.8,8.97-7.87-.98-1.82,2.67-4.19,6.46-7.73,6.58Z" fill="#000" stroke-width="0"/><path d="M36.25,27.39c3.69-4.31,4-16.98,10.61-16.18-1.66,2.97-3.79,6.5-5.23,9.94,2.88-3.31,6.21-9.12,10.85-10.08,2.55.14,2.18,2.77.91,4.58-1.21,2.79-5.99,7.25-4.75,10.06,3.05-.48,5.06-4.03,7.06-6.05.5-.52.71.49.34.77-1.9,2.61-9.1,11.07-10.22,4.32-.18-4.51,6.56-8.78,5.86-12.67-5.1,3.53-9.29,9.04-12.29,14.45-.64,1.06-2.18.27-3.12.86Z" fill="#000" stroke-width="0"/><path d="M58.23,27.96c-10.08-.24,6.42-28.93,12.14-27.94-5.26,7.1-11.29,16.23-13.35,25.15,1.44,6.28,8.9-4.1,8.31-7.1-4.36-3.51,3.08-8.94,1.25.1,3.23,1.41,5.77-.91,7.63-3.31.58,3.3-4.82,5.53-7.68,4.22-.95,3.76-3.96,8.67-8.3,8.88Z" fill="#000" stroke-width="0"/><path d="M71.77,27.29c-9.72-2.12,8.39-23.03,13.99-14.42.67.95-.67,1.93-1.08.69-.91-2.35-2.92-1.84-4.75-.53-4.93,2.1-14.58,20.26-3.1,9.65,2.66-1.84,3.82-7.16,7.37-6.19.55.52.07.66-.38,1.66-5.22,8.41-3.15,10.13,3.46,2.57,1.87-2.46,1.49-.15.1.98-3.56,5.63-11.8,8.97-7.87-.98-1.82,2.67-4.19,6.46-7.73,6.58Z" fill="#000" stroke-width="0"/><path d="M84.82,27.39c3.69-4.31,4-16.98,10.61-16.18-1.66,2.97-3.79,6.5-5.23,9.94,2.88-3.31,6.21-9.12,10.85-10.08,2.55.14,2.18,2.77.91,4.58-1.21,2.79-5.99,7.25-4.75,10.06,3.05-.48,5.06-4.03,7.06-6.05.5-.52.71.49.34.77-1.9,2.61-9.1,11.07-10.22,4.32-.18-4.51,6.56-8.78,5.86-12.67-5.1,3.53-9.29,9.04-12.29,14.45-.64,1.06-2.18.27-3.12.86Z" fill="#000" stroke-width="0"/></g></g></svg>